<svg xmlns="http://www.w3.org/2000/svg" viewBox="0 0 27.33 27.33"><defs><style>.cls-1{fill:#fff;}</style></defs><title>Asset 15</title><g id="Layer_2" data-name="Layer 2"><g id="Layer_1-2" data-name="Layer 1"><path class="cls-1" d="M18.79,0H8.54A8.54,8.54,0,0,0,0,8.54V18.79a8.54,8.54,0,0,0,8.54,8.54H18.79a8.55,8.55,0,0,0,8.54-8.54V8.54A8.54,8.54,0,0,0,18.79,0Zm6,18.79a6,6,0,0,1-6,6H8.54a6,6,0,0,1-6-6V8.54a6,6,0,0,1,6-6H18.79a6,6,0,0,1,6,6Z"/><path class="cls-1" d="M13.66,6.83a6.84,6.84,0,1,0,6.84,6.83A6.83,6.83,0,0,0,13.66,6.83Zm0,11.1a4.27,4.27,0,1,1,4.27-4.27A4.27,4.27,0,0,1,13.66,17.93Z"/><circle class="cls-1" cx="21.01" cy="6.32" r="0.91"/></g></g></svg>