<svg xmlns="http://www.w3.org/2000/svg" viewBox="0 0 28.58 23.22"><defs><style>.cls-1{fill:#fff;}</style></defs><title>Asset 14</title><g id="Layer_2" data-name="Layer 2"><g id="Layer_1-2" data-name="Layer 1"><path class="cls-1" d="M28.58,2.75a12.08,12.08,0,0,1-3.38.92A5.76,5.76,0,0,0,27.78.44a11.64,11.64,0,0,1-3.71,1.41,5.89,5.89,0,0,0-10,5.35A16.63,16.63,0,0,1,2,1.07,5.87,5.87,0,0,0,3.79,8.9a5.86,5.86,0,0,1-2.65-.72v.06A5.89,5.89,0,0,0,5.84,14a5.91,5.91,0,0,1-1.54.19,5.15,5.15,0,0,1-1.11-.1,5.92,5.92,0,0,0,5.48,4.08,11.8,11.8,0,0,1-7.27,2.5A10.75,10.75,0,0,1,0,20.59a16.45,16.45,0,0,0,9,2.63c10.78,0,16.67-8.93,16.67-16.67,0-.26,0-.51,0-.76A11.49,11.49,0,0,0,28.58,2.75Z"/></g></g></svg>